{"title":"Ocean.Predators.2013.720p.BRRip.x264-Fastbet99","uid":9307566,"size":863737631,"categoryP":"video","categoryS":"hd___movies","magnet":"?xt=urn:btih:78340df700e70c1ddbcba19a2aa32adf6e14a54f&amp;dn=Ocean.Predators.2013.720p.BRRip.x264-Fastbet99&amp;tr=udp%3A%2F%2Ftracker.openbittorrent.com%3A80&amp;tr=udp%3A%2F%2Fopen.demonii.com%3A1337&amp;tr=udp%3A%2F%2Ftracker.coppersurfer.tk%3A6969&amp;tr=udp%3A%2F%2Fexodus.desync.com%3A6969","seeders":0,"leechers":0,"uploader":"Fastbet99","files":-1,"time":1386340890,"description":"Ocean Predators (2013)\n\nIMDB Info\t\t\t\t : http://www.imdb.com/title/tt3241768\n\nSource\t\t\t\t\t : PHD (Thanks)\nComplete name                            : Ocean.Predators.2013.720p.BRRip.x264-Fastbet99.mp4\nFormat                                   : MPEG-4\nFormat profile                           : Base Media\nCodec ID                                 : isom\nFile size                                : 824 MiB\nDuration                                 : 57mn 19s\nOverall bit rate mode                    : Variable\nOverall bit rate                         : 2 009 Kbps\n\nVideo\nID                                       : 1\nFormat                                   : AVC\nFormat/Info                              : Advanced Video Codec\nFormat profile                           : &lt;a class=&quot;__cf_email__&quot; href=&quot;/cdn-cgi/l/email-protection&quot; data-cfemail=&quot;1f577678775f532b312e&quot;&gt;[email&amp;#160;protected]&lt;/a&gt;&lt;script data-cfhash='f9e31' type=&quot;text/javascript&quot;&gt;\n/* &lt;![CDATA[ */!function(){try{var t=&quot;currentScript&quot;in document?document.currentScript:function(){for(var t=document.getElementsByTagName(&quot;script&quot;),e=t.length;e--;)if(t[e].getAttribute(&quot;data-cfhash&quot;))return t[e]}();if(t&amp;&amp;t.previousSibling){var e,r,n,i,c=t.previousSibling,a=c.getAttribute(&quot;data-cfemail&quot;);if(a){for(e=&quot;&quot;,r=parseInt(a.substr(0,2),16),n=2;a.length-n;n+=2)i=parseInt(a.substr(n,2),16)^r,e+=String.fromCharCode(i);e=document.createTextNode(e),c.parentNode.replaceChild(e,c)}t.parentNode.removeChild(t);}}catch(u){}}()/* ]]&gt; */&lt;/script&gt;\nFormat settings, CABAC                   : Yes\nFormat settings, ReFrames                : 4 frames\nCodec ID                                 : avc1\nCodec ID/Info                            : Advanced Video Coding\nDuration                                 : 57mn 19s\nBit rate                                 : 1 729 Kbps\nMaximum bit rate                         : 7 208 Kbps\nWidth                                    : 1 280 pixels\nHeight                                   : 720 pixels\nDisplay aspect ratio                     : 16:9\nFrame rate mode                          : Constant\nFrame rate                               : 23.976 fps\nColor space                              : YUV\nChroma subsampling                       : 4:2:0\nBit depth                                : 8 bits\nScan type                                : Progressive\nBits/(Pixel*Frame)                       : 0.078\nStream size                              : 709 MiB (86%)\nWriting library                          : x264 core 133 r2334 a3ac64b\n\nAudio\nID                                       : 2\nFormat                                   : AAC\nFormat/Info                              : Advanced Audio Codec\nFormat profile                           : LC\nCodec ID                                 : 40\nDuration                                 : 57mn 19s\nBit rate mode                            : Variable\nBit rate                                 : 96.0 Kbps\nMaximum bit rate                         : 159 Kbps\nChannel(s)                               : 2 channels\nChannel positions                        : Front: L R\nSampling rate                            : 48.0 KHz\nCompression mode                         : Lossy\nStream size                              : 39.3 MiB (5%)\nLanguage                                 : English\n\nText #1\nID                                       : 3\nFormat                                   : mp4s\nCodec ID                                 : E0\nDuration                                 : 55mn 29s\nBit rate mode                            : Variable\nBit rate                                 : 7 144 bps\nMaximum bit rate                         : 66.0 Kbps\nStream size                              : 2.84 MiB (0%)\nLanguage                                 : English\n\nText #2\nID                                       : 4\nFormat                                   : mp4s\nCodec ID                                 : E0\nDuration                                 : 57mn 18s\nBit rate mode                            : Variable\nBit rate                                 : 7 232 bps\nMaximum bit rate                         : 66.1 Kbps\nStream size                              : 2.97 MiB (0%)\nLanguage                                 : French\n\nText #3\nID                                       : 5\nFormat                                   : mp4s\nCodec ID                                 : E0\nDuration                                 : 57mn 18s\nBit rate mode                            : Variable\nBit rate                                 : 7 048 bps\nMaximum bit rate                         : 69.6 Kbps\nStream size                              : 2.89 MiB (0%)\nLanguage                                 : Spanish\n\nText #4\nID                                       : 6\nFormat                                   : mp4s\nCodec ID                                 : E0\nDuration                                 : 57mn 18s\nBit rate mode                            : Variable\nBit rate                                 : 6 800 bps\nMaximum bit rate                         : 62.3 Kbps\nStream size                              : 2.79 MiB (0%)\nLanguage                                 : French\n\nText #5\nID                                       : 7\nFormat                                   : mp4s\nCodec ID                                 : E0\nDuration                                 : 57mn 18s\nBit rate mode                            : Variable\nBit rate                                 : 7 240 bps\nMaximum bit rate                         : 65.0 Kbps\nStream size                              : 2.97 MiB (0%)\nLanguage                                 : Italian\n\nText #6\nID                                       : 8\nFormat                                   : mp4s\nCodec ID                                 : E0\nDuration                                 : 57mn 18s\nBit rate mode                            : Variable\nBit rate                                 : 7 608 bps\nMaximum bit rate                         : 67.5 Kbps\nStream size                              : 3.12 MiB (0%)\nLanguage                                 : German\n\nText #7\nID                                       : 9\nFormat                                   : mp4s\nCodec ID                                 : E0\nDuration                                 : 57mn 18s\nBit rate mode                            : Variable\nBit rate                                 : 7 448 bps\nMaximum bit rate                         : 69.6 Kbps\nStream size                              : 3.05 MiB (0%)\nLanguage                                 : Spanish\n\nText #8\nID                                       : 10\nFormat                                   : mp4s\nCodec ID                                 : E0\nDuration                                 : 57mn 18s\nBit rate mode                            : Variable\nBit rate                                 : 7 136 bps\nMaximum bit rate                         : 66.6 Kbps\nStream size                              : 2.93 MiB (0%)\nLanguage                                 : Dutch\n\nText #9\nID                                       : 11\nFormat                                   : mp4s\nCodec ID                                 : E0\nDuration                                 : 57mn 18s\nBit rate mode                            : Variable\nBit rate                                 : 7 344 bps\nMaximum bit rate                         : 69.7 Kbps\nStream size                              : 3.01 MiB (0%)\nLanguage                                 : Portuguese\n\nText #10\nID                                       : 12\nFormat                                   : mp4s\nCodec ID                                 : E0\nDuration                                 : 57mn 18s\nBit rate mode                            : Variable\nBit rate                                 : 7 736 bps\nMaximum bit rate                         : 65.3 Kbps\nStream size                              : 3.17 MiB (0%)\nLanguage                                 : Bulgarian\n\nText #11\nID                                       : 13\nFormat                                   : mp4s\nCodec ID                                 : E0\nDuration                                 : 57mn 18s\nBit rate mode                            : Variable\nBit rate                                 : 4 640 bps\nMaximum bit rate                         : 55.3 Kbps\nStream size                              : 1.90 MiB (0%)\nLanguage                                 : Chinese\n\nText #12\nID                                       : 14\nFormat                                   : mp4s\nCodec ID                                 : E0\nDuration                                 : 57mn 18s\nBit rate mode                            : Variable\nBit rate                                 : 6 080 bps\nMaximum bit rate                         : 61.2 Kbps\nStream size                              : 2.49 MiB (0%)\nLanguage                                 : Czech\n\nText #13\nID                                       : 15\nFormat                                   : mp4s\nCodec ID                                 : E0\nDuration                                 : 57mn 18s\nBit rate mode                            : Variable\nBit rate                                 : 6 472 bps\nMaximum bit rate                         : 60.6 Kbps\nStream size                              : 2.65 MiB (0%)\nLanguage                                 : Danish\n\nText #14\nID                                       : 16\nFormat                                   : mp4s\nCodec ID                                 : E0\nDuration                                 : 57mn 18s\nBit rate mode                            : Variable\nBit rate                                 : 6 688 bps\nMaximum bit rate                         : 68.9 Kbps\nStream size                              : 2.74 MiB (0%)\nLanguage                                 : Finnish\n\nText #15\nID                                       : 17\nFormat                                   : mp4s\nCodec ID                                 : E0\nDuration                                 : 57mn 18s\nBit rate mode                            : Variable\nBit rate                                 : 7 936 bps\nMaximum bit rate                         : 69.8 Kbps\nStream size                              : 3.26 MiB (0%)\nLanguage                                 : Greek\n\nText #16\nID                                       : 18\nFormat                                   : mp4s\nCodec ID                                 : E0\nDuration                                 : 57mn 18s\nBit rate mode                            : Variable\nBit rate                                 : 6 736 bps\nMaximum bit rate                         : 67.2 Kbps\nStream size                              : 2.76 MiB (0%)\nLanguage                                 : Hungarian\n\nText #17\nID                                       : 19\nFormat                                   : mp4s\nCodec ID                                 : E0\nDuration                                 : 57mn 18s\nBit rate mode                            : Variable\nBit rate                                 : 6 944 bps\nMaximum bit rate                         : 68.0 Kbps\nStream size                              : 2.85 MiB (0%)\nLanguage                                 : Icelandic\n\nText #18\nID                                       : 20\nFormat                                   : mp4s\nCodec ID                                 : E0\nDuration                                 : 57mn 18s\nBit rate mode                            : Variable\nBit rate                                 : 4 808 bps\nMaximum bit rate                         : 48.3 Kbps\nStream size                              : 1.97 MiB (0%)\nLanguage                                 : Korean\n\nText #19\nID                                       : 21\nFormat                                   : mp4s\nCodec ID                                 : E0\nDuration                                 : 57mn 18s\nBit rate mode                            : Variable\nBit rate                                 : 6 432 bps\nMaximum bit rate                         : 64.7 Kbps\nStream size                              : 2.64 MiB (0%)\nLanguage                                 : Norwegian\n\nText #20\nID                                       : 22\nFormat                                   : mp4s\nCodec ID                                 : E0\nDuration                                 : 57mn 18s\nBit rate mode                            : Variable\nBit rate                                 : 6 512 bps\nMaximum bit rate                         : 67.2 Kbps\nStream size                              : 2.67 MiB (0%)\nLanguage                                 : Polish\n\nText #21\nID                                       : 23\nFormat                                   : mp4s\nCodec ID                                 : E0\nDuration                                 : 57mn 18s\nBit rate mode                            : Variable\nBit rate                                 : 7 808 bps\nMaximum bit rate                         : 65.5 Kbps\nStream size                              : 3.20 MiB (0%)\nLanguage                                 : Portuguese\n\nText #22\nID                                       : 24\nFormat                                   : mp4s\nCodec ID                                 : E0\nDuration                                 : 57mn 18s\nBit rate mode                            : Variable\nBit rate                                 : 7 224 bps\nMaximum bit rate                         : 66.1 Kbps\nStream size                              : 2.96 MiB (0%)\nLanguage                                 : Russian\n\nText #23\nID                                       : 25\nFormat                                   : mp4s\nCodec ID                                 : E0\nDuration                                 : 57mn 18s\nBit rate mode                            : Variable\nBit rate                                 : 6 224 bps\nMaximum bit rate                         : 61.3 Kbps\nStream size                              : 2.55 MiB (0%)\nLanguage                                 : Swedish\n\nText #24\nID                                       : 26\nFormat                                   : mp4s\nCodec ID                                 : E0\nDuration                                 : 57mn 18s\nBit rate mode                            : Variable\nBit rate                                 : 5 664 bps\nMaximum bit rate                         : 69.5 Kbps\nStream size                              : 2.32 MiB (0%)\nLanguage                                 : Thai\n\nText #25\nID                                       : 27\nFormat                                   : mp4s\nCodec ID                                 : E0\nDuration                                 : 57mn 18s\nBit rate mode                            : Variable\nBit rate                                 : 4 448 bps\nMaximum bit rate                         : 48.2 Kbps\nStream size                              : 1.82 MiB (0%)\nLanguage                                 : Chinese\n\n\nText #26\nID                                       : 28\nFormat                                   : mp4s\nCodec ID                                 : E0\nDuration                                 : 57mn 18s\nBit rate mode                            : Variable\nBit rate                                 : 7 552 bps\nMaximum bit rate                         : 71.0 Kbps\nStream size                              : 3.10 MiB (0%)\nLanguage                                 : Turkish\n\nText #27\nID                                       : 29\nFormat                                   : mp4s\nCodec ID                                 : E0\nDuration                                 : 55mn 29s\nBit rate mode                            : Variable\nBit rate                                 : 4 608 bps\nMaximum bit rate                         : 46.3 Kbps\nStream size                              : 1.83 MiB (0%)\nLanguage                                 : Japanese\nEncoder\t\t\t\t\t : Fastbet99\n\nScreenshots\n &lt;a href=&quot;\nhttp://lookpic.com/O/i2/454/btojCfDu.jpeg&quot; rel=&quot;nofollow&quot; target=&quot;_NEW&quot;&gt;\nhttp://lookpic.com/O/i2/454/btojCfDu.jpeg&lt;/a&gt;\n\nStairway To heaven - Help People With Keep Seed As Long You Can","torrent":{"xt":"urn:btih:78340df700e70c1ddbcba19a2aa32adf6e14a54f","amp;dn":"Ocean.Predators.2013.720p.BRRip.x264-Fastbet99","amp;tr":["udp%3A%2F%2Ftracker.openbittorrent.com%3A80","udp%3A%2F%2Fopen.demonii.com%3A1337","udp%3A%2F%2Ftracker.coppersurfer.tk%3A6969","udp%3A%2F%2Fexodus.desync.com%3A6969"],"infoHash":"78340df700e70c1ddbcba19a2aa32adf6e14a54f","infoHashBuffer":{"type":"Buffer","data":[120,52,13,247,0,231,12,29,219,203,161,154,42,163,42,223,110,20,165,79]},"announce":[],"urlList":[]}}